<?xml version="1.0" encoding="iso-8859-1"?>
<!-- Generator: Adobe Illustrator 21.0.0, SVG Export Plug-In . SVG Version: 6.00 Build 0)  -->
<svg version="1.1" id="Capa_1" xmlns="http://www.w3.org/2000/svg" xmlns:xlink="http://www.w3.org/1999/xlink" x="0px" y="0px"
	 viewBox="0 0 512 512" style="enable-background:new 0 0 512 512;" xml:space="preserve">
<g>
	<path style="fill:#27A3FF;" d="M375.086,48.37C337.388,24.701,292.797,11,245.001,11c-47.797,0-92.388,13.701-130.086,37.37
		H375.086z"/>
	<path style="fill:#27A3FF;" d="M76.68,434.014C120.575,475.533,179.811,501,245.001,501c65.189,0,124.425-25.467,168.32-66.986
		H76.68z"/>
	<path style="fill:#0080F4;" d="M258.937,500.595c59.672-3.348,113.639-28.042,154.383-66.581H258.494
		C286.747,445.215,287.517,489.119,258.937,500.595z"/>
	<path style="fill:#2B3894;" d="M436.151,45.5H119.598c-14.637,8.738-28.284,18.961-40.738,30.457L51.495,406.25
		c8.549,10.993,18.002,21.25,28.268,30.633H326.05V184.368c0-12.617,10.264-22.882,22.881-22.882h119.817V78.098
		C468.748,60.123,454.125,45.5,436.151,45.5z"/>
	<path style="fill:#232E7A;" d="M112.102,421.334c0-8.623,6.773-15.644,15.288-16.083V76.895
		c-8.514-0.438-15.288-7.46-15.288-16.083c0-7.146,4.652-13.196,11.089-15.312h-3.593c-14.637,8.738-28.284,18.961-40.738,30.457
		L51.495,406.25c8.549,10.993,18.002,21.25,28.268,30.633h44.251C117.155,435.029,112.102,428.779,112.102,421.334z"/>
	<path style="fill:#E6F7FE;" d="M24.915,148.263c-11.339,23.119-19.125,48.29-22.692,74.799l28.942,152.571l-0.004,0.002
		c6.262,11.168,13.364,21.801,21.236,31.801H326.05V184.368c0-12.617,10.264-22.882,22.881-22.882H439.3v-13.223H24.915z"/>
	<path style="fill:#D5F1FE;" d="M24.915,148.263c-11.339,23.119-19.125,48.29-22.692,74.798l28.942,152.571l-0.004,0.003
		c6.262,11.168,13.363,21.801,21.236,31.801h67.782V148.263H24.915z"/>
	<path style="fill:#F948B4;" d="M252.148,223.029H2.216C0.765,233.814,0,244.817,0,256c0,32.824,6.471,64.133,18.181,92.742h241.584
		V230.647C259.766,226.44,256.355,223.029,252.148,223.029z"/>
	<path style="fill:#F948B4;" d="M31.164,375.633h220.984c4.207,0,7.618-3.411,7.618-7.618v-19.273H18.181
		C21.972,358.003,26.313,366.979,31.164,375.633z"/>
	<path style="fill:#E00E8B;" d="M119.319,223.029H2.216C0.765,233.814,0,244.817,0,256c0,32.824,6.472,64.133,18.182,92.742h93.52
		V230.647C111.702,226.44,115.112,223.029,119.319,223.029z"/>
	<path style="fill:#E00E8B;" d="M111.702,368.015v-19.273h-93.52c3.791,9.261,8.131,18.238,12.983,26.891h88.155
		C115.112,375.633,111.702,372.222,111.702,368.015z"/>
	<path style="fill:#F948B4;" d="M22.914,192.903c4.201,0,7.606-3.405,7.606-7.606c0-4.201-3.405-7.606-7.606-7.606H12.785
		c-1.685,4.999-3.201,10.075-4.567,15.212H22.914z"/>
	<path style="fill:#D5F1FE;" d="M204.755,194.083V176.51c0-2.823-2.289-5.112-5.113-5.112H69.676c-2.824,0-5.113,2.289-5.113,5.112
		v17.573c0,2.824,2.289,5.113,5.113,5.113h129.967C202.466,199.195,204.755,196.906,204.755,194.083z"/>
	<path style="fill:#11DFEF;" d="M114.563,194.083V176.51c0-2.823,2.289-5.112,5.112-5.112h-50c-2.824,0-5.112,2.289-5.112,5.112
		v17.573c0,2.824,2.289,5.113,5.112,5.113h50C116.852,199.195,114.563,196.906,114.563,194.083z"/>
	<path style="fill:#11DFEF;" d="M297.934,168.355c-4.217,0-7.636,3.419-7.636,7.637v48.729c0,4.217,3.419,7.637,7.636,7.637h28.117
		v-47.989c0-6.23,2.505-11.883,6.557-16.013H297.934z"/>
	<path style="fill:#11DFEF;" d="M326.05,256.092h-28.117c-4.217,0-7.636,3.419-7.636,7.637v48.729c0,4.217,3.419,7.637,7.636,7.637
		h28.117V256.092z"/>
	<path style="fill:#11DFEF;" d="M326.05,343.829h-28.117c-4.217,0-7.636,3.419-7.636,7.637v48.729c0,3.373,2.19,6.23,5.223,7.241
		h30.53V343.829z"/>
	<g>
		<path style="fill:#FC7ACD;" d="M259.766,349.892H48.088c-4.201,0-7.606-3.405-7.606-7.606c0-4.201,3.405-7.606,7.606-7.606
			h211.678c4.201,0,7.606,3.405,7.606,7.606C267.372,346.486,263.966,349.892,259.766,349.892z"/>
	</g>
	<path style="fill:#11DFEF;" d="M48.088,334.68h-35.18c1.746,5.152,3.67,10.22,5.743,15.212h29.437c4.201,0,7.606-3.405,7.606-7.606
		C55.694,338.085,52.289,334.68,48.088,334.68z"/>
	<path style="fill:#FC7ACD;" d="M140.538,283.285l-40.487-26.554c-2.566-1.683-5.976,0.158-5.976,3.227v53.109
		c0,3.069,3.409,4.91,5.976,3.227l40.487-26.554C142.862,288.215,142.862,284.809,140.538,283.285z"/>
	<path style="fill:#F948B4;" d="M109.807,293.724V279.3c0-5.364,3.45-9.481,7.857-11.017l-17.613-11.552
		c-2.566-1.683-5.976,0.158-5.976,3.227v53.109c0,3.069,3.41,4.91,5.976,3.227l17.613-11.552
		C113.257,303.205,109.807,299.089,109.807,293.724z"/>
	<g>
		<g>
			<path style="fill:#3D4EC6;" d="M487.598,159.965H348.931c-13.455,0-24.402,10.947-24.402,24.403v292.23
				c0,13.455,10.947,24.402,24.402,24.402h138.667C501.053,501,512,490.053,512,476.598v-292.23
				C512,170.912,501.053,159.965,487.598,159.965z"/>
		</g>
	</g>
	<path style="fill:#3342AE;" d="M377.45,485.62V203.693c0-10.767-2.972-21.195-7.641-30.897c-0.604-1.255-0.942-2.663-0.942-4.149
		c0-3.847,2.272-7.155,5.542-8.68h-25.477c-13.477,0-24.402,10.925-24.402,24.402v292.23c0,13.477,10.925,24.402,24.402,24.402
		h24.355c-2.419-1.445-4.044-4.082-4.044-7.104C369.242,489.348,372.911,485.659,377.45,485.62z"/>
	<g>
		<path style="fill:#E6F7FE;" d="M497.873,255.404c0-38.627,0-67.703,0-71.036c0-5.675-4.601-10.276-10.276-10.276h-20.609
			c-1.943,0-3.518,1.575-3.518,3.518c0,4.662-3.814,8.476-8.476,8.476h-73.459c-4.662,0-8.476-3.814-8.476-8.476
			c0-1.943-1.575-3.518-3.518-3.518h-20.609c-5.675,0-10.276,4.601-10.276,10.276c0,1.155,0,30.914,0,71.036H497.873z"/>
		<path style="fill:#E6F7FE;" d="M338.656,348.655c0,65.245,0,125.59,0,127.944c0,5.675,4.601,10.275,10.275,10.275h138.667
			c5.674,0,10.275-4.6,10.275-10.275c0-4.731,0-63.988,0-127.944H338.656z"/>
	</g>
	<g>
		<path style="fill:#D5F1FE;" d="M373.186,255.404c0-29.65,0-56.348,0-76.386c-0.078-0.459-0.128-0.928-0.128-1.408
			c0-1.943-1.575-3.518-3.518-3.518h-20.609c-5.675,0-10.276,4.601-10.276,10.276c0,1.155,0,30.914,0,71.036H373.186z"/>
		<path style="fill:#D5F1FE;" d="M338.656,348.655c0,65.245,0,125.59,0,127.944c0,5.675,4.601,10.275,10.275,10.275h24.255
			c0-32.057,0-84.134,0-138.219H338.656z"/>
	</g>
	<g>
		<path style="fill:#11DFEF;" d="M448.644,383.239h-18.801c-4.201,0-7.606-3.405-7.606-7.606s3.405-7.606,7.606-7.606h18.801
			c4.201,0,7.606,3.406,7.606,7.606S452.845,383.239,448.644,383.239z"/>
	</g>
	<g>
		<path style="fill:#D5F1FE;" d="M471.502,408.668h-41.658c-4.201,0-7.606-3.406-7.606-7.606s3.405-7.606,7.606-7.606h41.658
			c4.201,0,7.606,3.405,7.606,7.606S475.703,408.668,471.502,408.668z"/>
	</g>
	<g>
		<path style="fill:#11DFEF;" d="M448.644,440.907h-18.801c-4.201,0-7.606-3.405-7.606-7.606c0-4.201,3.405-7.606,7.606-7.606
			h18.801c4.201,0,7.606,3.405,7.606,7.606C456.25,437.502,452.845,440.907,448.644,440.907z"/>
	</g>
	<g>
		<path style="fill:#D5F1FE;" d="M471.502,466.336h-41.658c-4.201,0-7.606-3.405-7.606-7.606c0-4.201,3.405-7.606,7.606-7.606
			h41.658c4.201,0,7.606,3.405,7.606,7.606C479.108,462.931,475.703,466.336,471.502,466.336z"/>
	</g>
	<rect x="338.656" y="254.057" style="fill:#F948B4;" width="159.217" height="95.944"/>
	<rect x="338.656" y="254.057" style="fill:#E00E8B;" width="34.531" height="95.944"/>
	<path style="fill:#D5F1FE;" d="M463.343,226.799v-13.516c0-2.824-2.289-5.113-5.113-5.113h-79.931
		c-2.824,0-5.112,2.289-5.112,5.113v13.516c0,2.823,2.289,5.113,5.112,5.113h79.931
		C461.054,231.912,463.343,229.622,463.343,226.799z"/>
	<path style="fill:#11DFEF;" d="M403.566,226.799v-13.516c0-2.824,2.289-5.113,5.112-5.113h-30.38c-2.824,0-5.113,2.289-5.113,5.113
		v13.516c0,2.823,2.289,5.113,5.113,5.113h30.38C405.855,231.912,403.566,229.622,403.566,226.799z"/>
	<path style="fill:#D5F1FE;" d="M400.439,373.604h-31.925c-3.705,0-6.719,3.014-6.719,6.719v16.048c0,3.705,3.014,6.719,6.719,6.719
		h31.925c3.705,0,6.719-3.014,6.719-6.719v-16.048C407.158,376.618,404.144,373.604,400.439,373.604z"/>
	<path style="fill:#D5F1FE;" d="M400.439,431.273h-31.925c-3.705,0-6.719,3.014-6.719,6.719v16.047c0,3.706,3.014,6.72,6.719,6.72
		h31.925c3.705,0,6.719-3.014,6.719-6.72v-16.047C407.158,434.287,404.144,431.273,400.439,431.273z"/>
	<path style="fill:#11DFEF;" d="M384.477,396.371v-16.048c0-3.705,3.014-6.719,6.719-6.719h-22.681
		c-3.705,0-6.719,3.014-6.719,6.719v16.048c0,3.705,3.014,6.719,6.719,6.719h22.681C387.491,403.09,384.477,400.076,384.477,396.371
		z"/>
	<path style="fill:#11DFEF;" d="M384.477,454.039v-16.047c0-3.705,3.014-6.719,6.719-6.719h-22.681
		c-3.705,0-6.719,3.014-6.719,6.719v16.047c0,3.706,3.014,6.72,6.719,6.72h22.681C387.491,460.759,384.477,457.745,384.477,454.039z
		"/>
	<path style="fill:#D5F1FE;" d="M24.411,149.277H439.3v-26.835H39.588C33.992,131.032,28.913,139.988,24.411,149.277z"/>
	<path style="fill:#11DFEF;" d="M120.178,122.443h-80.59c-5.596,8.589-10.675,17.545-15.177,26.835h95.768V122.443z"/>
	<path style="fill:#0AC6E5;" d="M64.563,149.277c0-14.779-11.172-26.764-24.977-26.831c-5.595,8.588-10.673,17.543-15.175,26.831
		H64.563z"/>
	<path style="fill:#615DF9;" d="M436.151,74.948H79.944c-15.886,14.491-29.859,31.043-41.493,49.236H439.3V78.098
		C439.3,76.39,437.858,74.948,436.151,74.948z"/>
	<path style="fill:#3D4EC6;" d="M120.178,74.948H79.944c-15.886,14.491-29.859,31.043-41.494,49.236h81.728V74.948z"/>
	<g>
		<path style="fill:#AEAEFF;" d="M409.996,107.172h-53.414c-4.201,0-7.606-3.405-7.606-7.606c0-4.201,3.405-7.606,7.606-7.606
			h53.414c4.201,0,7.606,3.405,7.606,7.606C417.602,103.767,414.197,107.172,409.996,107.172z"/>
	</g>
	<g>
		<path style="fill:#AEAEFF;" d="M318.372,107.172H84.873c-4.201,0-7.606-3.405-7.606-7.606c0-4.201,3.405-7.606,7.606-7.606
			h233.499c4.201,0,7.606,3.405,7.606,7.606C325.978,103.767,322.573,107.172,318.372,107.172z"/>
	</g>
	<path style="fill:#8181FC;" d="M276.6,99.566c0-4.201,3.405-7.606,7.606-7.606H84.873c-4.2,0-7.606,3.405-7.606,7.606
		c0,4.201,3.406,7.606,7.606,7.606h199.333C280.005,107.172,276.6,103.767,276.6,99.566z"/>
	<path style="fill:#F948B4;" d="M199.643,171.398h-24.284v27.798h24.284c2.824,0,5.113-2.289,5.113-5.113V176.51
		C204.755,173.687,202.466,171.398,199.643,171.398z"/>
	<g>
		<path style="fill:#E6F7FE;" d="M48.088,357.498c-4.201,0-7.606-3.405-7.606-7.606v-16.226c0-4.201,3.405-7.606,7.606-7.606
			c4.201,0,7.606,3.405,7.606,7.606v16.226C55.694,354.092,52.289,357.498,48.088,357.498z"/>
	</g>
	<path style="fill:#D5F1FE;" d="M48.088,342.285c-4.201,0-7.606-3.405-7.606-7.606v15.212c0,4.201,3.405,7.606,7.606,7.606
		c4.201,0,7.606-3.405,7.606-7.606V334.68C55.694,338.88,52.289,342.285,48.088,342.285z"/>
	<path style="fill:#F948B4;" d="M458.23,208.171h-24.284v23.741h24.284c2.824,0,5.113-2.289,5.113-5.113v-13.516
		C463.343,210.46,461.054,208.171,458.23,208.171z"/>
	<path style="fill:#FF97DF;" d="M437.476,299.783l-28.186-18.487c-1.787-1.172-4.16,0.11-4.16,2.247v36.973
		c0,2.137,2.373,3.418,4.16,2.247l28.186-18.486C439.094,303.215,439.094,300.844,437.476,299.783z"/>
	<path style="fill:#FC7ACD;" d="M416.414,308.837v-13.614c0-3.121,2.175-5.456,4.823-6.09l-11.947-7.836
		c-1.787-1.172-4.16,0.11-4.16,2.247v36.973c0,2.137,2.374,3.418,4.16,2.247l11.947-7.836
		C418.589,314.292,416.414,311.957,416.414,308.837z"/>
</g>
<g>
</g>
<g>
</g>
<g>
</g>
<g>
</g>
<g>
</g>
<g>
</g>
<g>
</g>
<g>
</g>
<g>
</g>
<g>
</g>
<g>
</g>
<g>
</g>
<g>
</g>
<g>
</g>
<g>
</g>
</svg>
