<?xml version="1.0" encoding="iso-8859-1"?>
<!-- Generator: Adobe Illustrator 21.0.0, SVG Export Plug-In . SVG Version: 6.00 Build 0)  -->
<svg version="1.1" id="Capa_1" xmlns="http://www.w3.org/2000/svg" xmlns:xlink="http://www.w3.org/1999/xlink" x="0px" y="0px"
	 viewBox="0 0 512 512" style="enable-background:new 0 0 512 512;" xml:space="preserve">
<g>
	<path style="fill:#00C82F;" d="M431.16,423.901l0.475,1.803c36.392-42.754,58.366-98.159,58.366-158.704
		c0-135.31-109.691-245-245-245c-70.648,0-134.299,29.914-179.013,77.753L431.16,423.901z"/>
	<path style="fill:#3D4EC6;" d="M226.545,379.386c-7.787,0-14.1-6.313-14.1-14.1V170.074H19.936C7.116,199.803,0,232.568,0,267
		c0,135.31,109.69,245,245,245c75.614,0,143.217-34.262,188.159-88.099v-44.515H226.545z"/>
	<path style="fill:#3342AE;" d="M80.425,170.074H19.936C7.116,199.803,0,232.569,0,267c0,71.959,31.024,136.67,80.425,181.493
		V170.074z"/>
	<path style="fill:#D5F1FE;" d="M19.074,172.074H433.16v-26.267H32.036C27.214,154.262,22.879,163.029,19.074,172.074z"/>
	<path style="fill:#11DFEF;" d="M32.036,145.808c-4.821,8.454-9.157,17.221-12.962,26.266h90.97
		c0-14.507-11.078-26.266-24.744-26.266H32.036z"/>
	<path style="fill:#11DFEF;" d="M80.425,145.808H32.036c-4.821,8.454-9.157,17.221-12.962,26.266h61.351V145.808z"/>
	<path style="fill:#615DF9;" d="M212.445,98.781c-52.617,0-105.189,0-145.553,0c-13.796,14.602-25.809,30.901-35.707,48.549h181.261
		V98.781z"/>
	<path style="fill:#3342AE;" d="M80.425,109.971c0-5.09,3.217-9.454,7.714-11.19c-7.384,0-14.49,0-21.247,0
		c-13.796,14.602-25.809,30.901-35.707,48.549h49.24V109.971z"/>
	<g>
		<path style="fill:#FECD0A;" d="M59.55,132.588c-5.431,0-10-4.421-10-10c0-6.324,5.818-11.045,11.95-9.81
			c4.844,0.984,8.05,5.215,8.05,9.81C69.55,128.097,65.061,132.588,59.55,132.588z"/>
	</g>
	<g>
		<path style="fill:#39DF74;" d="M90.425,132.588c-5.431,0-10-4.421-10-10c0-6.352,5.844-11.04,11.95-9.81
			c4.844,0.984,8.05,5.219,8.05,9.81C100.425,128.097,95.936,132.588,90.425,132.588z"/>
	</g>
	<path style="fill:#8181FC;" d="M212.445,115.555H130.07c-4.142,0-7.5,3.358-7.5,7.5c0,4.142,3.358,7.5,7.5,7.5h82.376V115.555z"/>
	<path style="fill:#FECD0A;" d="M33.795,379.412h185.353c-3.982-2.12-6.702-6.31-6.702-11.126v-21.349H33.795
		c-2.689,0-4.869,2.18-4.869,4.869v22.737C28.925,377.232,31.105,379.412,33.795,379.412z"/>
	<path style="fill:#27A3FF;" d="M28.925,230.773v82.277c0,2.689,2.18,4.869,4.869,4.869h178.651v-92.016H33.795
		C31.105,225.904,28.925,228.084,28.925,230.773z"/>
	<path style="fill:#FCA60D;" d="M76.781,374.543v-22.737c0-2.689,2.18-4.869,4.869-4.869H33.794c-2.689,0-4.869,2.18-4.869,4.869
		v22.737c0,2.689,2.18,4.869,4.869,4.869H81.65C78.961,379.413,76.781,377.232,76.781,374.543z"/>
	<path style="fill:#0080F4;" d="M76.781,313.05v-82.278c0-2.689,2.18-4.869,4.869-4.869H33.794c-2.689,0-4.869,2.18-4.869,4.869
		v82.278c0,2.689,2.18,4.869,4.869,4.869H81.65C78.961,317.919,76.781,315.739,76.781,313.05z"/>
	<g>
		<path style="fill:#8181FC;" d="M71.175,206.253h-30.5c-4.142,0-7.5-3.357-7.5-7.5c0-4.143,3.358-7.5,7.5-7.5h30.5
			c4.142,0,7.5,3.357,7.5,7.5C78.675,202.895,75.317,206.253,71.175,206.253z"/>
	</g>
	<path style="fill:#8181FC;" d="M195.37,410.343H46.307c3.725,5.155,7.648,10.157,11.754,15H195.37c4.142,0,7.5-3.357,7.5-7.5
		C202.87,413.701,199.512,410.343,195.37,410.343z"/>
	<path style="fill:#8181FC;" d="M195.37,442.445H74.016c5.388,5.252,11.016,10.258,16.869,15H195.37c4.142,0,7.5-3.358,7.5-7.5
		C202.87,445.802,199.512,442.445,195.37,442.445z"/>
	<path style="fill:#8181FC;" d="M195.37,474.547H114.78c8.854,5.567,18.088,10.583,27.656,15h52.933c4.142,0,7.5-3.357,7.5-7.5
		S199.512,474.547,195.37,474.547z"/>
	<g>
		<path style="fill:#8181FC;" d="M390.839,425.343H230.877c-4.142,0-7.5-3.357-7.5-7.5c0-4.143,3.358-7.5,7.5-7.5h159.962
			c4.142,0,7.5,3.357,7.5,7.5C398.339,421.986,394.981,425.343,390.839,425.343z"/>
	</g>
	<g>
		<path style="fill:#8181FC;" d="M390.839,457.445H230.877c-4.142,0-7.5-3.358-7.5-7.5c0-4.143,3.358-7.5,7.5-7.5h159.962
			c4.142,0,7.5,3.357,7.5,7.5C398.339,454.087,394.981,457.445,390.839,457.445z"/>
	</g>
	<path style="fill:#8181FC;" d="M375.22,474.547H230.877c-4.142,0-7.5,3.357-7.5,7.5s3.358,7.5,7.5,7.5h116.687
		C357.132,485.129,366.366,480.113,375.22,474.547z"/>
	<path style="fill:#86FDFB;" d="M229.662,46.549v28.88h242.608c6.947,0,12.6,5.652,12.6,12.601v220.426h13.03
		c7.787,0,14.1-6.313,14.1-14.1V46.549H229.662z"/>
	<g>
		<path style="fill:#D5F1FE;" d="M286.504,65.809v-19.26h-56.842v28.88h61.713C288.429,73.237,286.504,69.742,286.504,65.809z"/>
	</g>
	<path style="fill:#E6F7FE;" d="M204.032,121.479v246.807c0,7.787,6.313,14.1,14.1,14.1H472.27c7.787,0,14.1-6.313,14.1-14.1
		V121.479H204.032z"/>
	<path style="fill:#D5F1FE;" d="M260.873,368.286V121.479h-56.841v246.807c0,7.787,6.313,14.1,14.1,14.1h56.841
		C267.186,382.386,260.873,376.073,260.873,368.286z"/>
	<path style="fill:#615DF9;" d="M486.37,122.479V88.03c0-7.787-6.313-14.1-14.1-14.1H218.132c-7.787,0-14.1,6.313-14.1,14.1v34.449
		H486.37z"/>
	<path style="fill:#3342AE;" d="M274.973,73.93h-56.841c-7.787,0-14.1,6.313-14.1,14.1v34.45h56.841v-34.45
		C260.873,80.242,267.186,73.93,274.973,73.93z"/>
	<g>
		<path style="fill:#11DFEF;" d="M259.503,238.989h-14.445c-4.142,0-7.5-3.357-7.5-7.5s3.358-7.5,7.5-7.5h14.445
			c4.142,0,7.5,3.357,7.5,7.5S263.645,238.989,259.503,238.989z"/>
	</g>
	<g>
		<path style="fill:#4FBBFF;" d="M354.55,238.989h-45.342c-4.142,0-7.5-3.357-7.5-7.5s3.358-7.5,7.5-7.5h45.342
			c4.142,0,7.5,3.357,7.5,7.5S358.692,238.989,354.55,238.989z"/>
	</g>
	<g>
		<path style="fill:#11DFEF;" d="M423.835,238.989h-41.432c-4.142,0-7.5-3.357-7.5-7.5s3.358-7.5,7.5-7.5h41.432
			c4.142,0,7.5,3.357,7.5,7.5S427.977,238.989,423.835,238.989z"/>
	</g>
	<g>
		<path style="fill:#4FBBFF;" d="M259.503,274.147h-14.445c-4.142,0-7.5-3.357-7.5-7.5c0-4.143,3.358-7.5,7.5-7.5h14.445
			c4.142,0,7.5,3.357,7.5,7.5C267.003,270.79,263.645,274.147,259.503,274.147z"/>
	</g>
	<g>
		<path style="fill:#FECD0A;" d="M259.503,309.305h-14.445c-4.142,0-7.5-3.357-7.5-7.5c0-4.143,3.358-7.5,7.5-7.5h14.445
			c4.142,0,7.5,3.357,7.5,7.5C267.003,305.948,263.645,309.305,259.503,309.305z"/>
	</g>
	<g>
		<path style="fill:#11DFEF;" d="M259.503,344.464h-14.445c-4.142,0-7.5-3.357-7.5-7.5s3.358-7.5,7.5-7.5h14.445
			c4.142,0,7.5,3.357,7.5,7.5S263.645,344.464,259.503,344.464z"/>
	</g>
	<g>
		<path style="fill:#11DFEF;" d="M354.55,274.147h-66.057c-4.142,0-7.5-3.357-7.5-7.5c0-4.143,3.358-7.5,7.5-7.5h66.057
			c4.142,0,7.5,3.357,7.5,7.5C362.05,270.79,358.692,274.147,354.55,274.147z"/>
	</g>
	<g>
		<path style="fill:#4FBBFF;" d="M354.55,309.305h-66.057c-4.142,0-7.5-3.357-7.5-7.5c0-4.143,3.358-7.5,7.5-7.5h66.057
			c4.142,0,7.5,3.357,7.5,7.5C362.05,305.948,358.692,309.305,354.55,309.305z"/>
	</g>
	<g>
		<path style="fill:#11DFEF;" d="M323.476,344.464h-34.984c-4.142,0-7.5-3.357-7.5-7.5s3.358-7.5,7.5-7.5h34.984
			c4.142,0,7.5,3.357,7.5,7.5S327.618,344.464,323.476,344.464z"/>
	</g>
	<g>
		<path style="fill:#FECD0A;" d="M447.238,274.147h-64.835c-4.142,0-7.5-3.357-7.5-7.5c0-4.143,3.358-7.5,7.5-7.5h64.835
			c4.142,0,7.5,3.357,7.5,7.5C454.738,270.79,451.38,274.147,447.238,274.147z"/>
	</g>
	<g>
		<path style="fill:#11DFEF;" d="M259.503,168.672h-14.445c-4.142,0-7.5-3.357-7.5-7.5c0-4.143,3.358-7.5,7.5-7.5h14.445
			c4.142,0,7.5,3.357,7.5,7.5C267.003,165.314,263.645,168.672,259.503,168.672z"/>
	</g>
	<g>
		<path style="fill:#FECD0A;" d="M259.503,203.83h-14.445c-4.142,0-7.5-3.357-7.5-7.5c0-4.143,3.358-7.5,7.5-7.5h14.445
			c4.142,0,7.5,3.357,7.5,7.5C267.003,200.472,263.645,203.83,259.503,203.83z"/>
	</g>
	<g>
		<path style="fill:#4FBBFF;" d="M335.301,168.672h-46.809c-4.142,0-7.5-3.357-7.5-7.5c0-4.143,3.358-7.5,7.5-7.5h46.809
			c4.142,0,7.5,3.357,7.5,7.5C342.801,165.314,339.443,168.672,335.301,168.672z"/>
	</g>
	<g>
		<path style="fill:#D5F1FE;" d="M313.118,203.83h-24.626c-4.142,0-7.5-3.357-7.5-7.5c0-4.143,3.358-7.5,7.5-7.5h24.626
			c4.142,0,7.5,3.357,7.5,7.5C320.618,200.472,317.261,203.83,313.118,203.83z"/>
	</g>
	<path style="fill:#615DF9;" d="M512,48.549V14.1C512,6.313,505.687,0,497.9,0H243.762c-7.787,0-14.1,6.313-14.1,14.1v34.45H512z"/>
	<g>
		<path style="fill:#3342AE;" d="M286.504,12c0-6.6,5.4-12,12-12h-54.742c-7.787,0-14.1,6.313-14.1,14.1v34.449h56.841V12z"/>
	</g>
	<g>
		<path style="fill:#F948B4;" d="M240.373,108.203c-5.426,0-10-4.387-10-10c0-4.757,3.336-8.845,8.04-9.8
			c6.092-1.227,11.96,3.446,11.96,9.8C250.373,103.681,245.926,108.203,240.373,108.203z"/>
	</g>
	<g>
		<path style="fill:#FECD0A;" d="M270.873,108.203c-5.487,0-10-4.451-10-10c0-6.399,5.874-11.023,11.95-9.8
			c4.732,0.96,8.05,5.091,8.05,9.8C280.873,103.589,276.511,108.203,270.873,108.203z"/>
	</g>
	<g>
		<path style="fill:#39DF74;" d="M301.373,108.203c-5.431,0-10-4.397-10-10c0-6.315,5.804-11.037,11.95-9.8
			c4.718,0.957,8.05,5.077,8.05,9.8C311.373,103.681,306.926,108.203,301.373,108.203z"/>
	</g>
	<g>
		<path style="fill:#AEAEFF;" d="M410.939,105.705h-77.923c-4.142,0-7.5-3.357-7.5-7.5s3.358-7.5,7.5-7.5h77.923
			c4.142,0,7.5,3.357,7.5,7.5S415.081,105.705,410.939,105.705z"/>
	</g>
	<g>
		<path style="fill:#AEAEFF;" d="M454.241,105.705h-16c-4.142,0-7.5-3.357-7.5-7.5s3.358-7.5,7.5-7.5h16c4.142,0,7.5,3.357,7.5,7.5
			S458.383,105.705,454.241,105.705z"/>
	</g>
	<g>
		<g>
			<path style="fill:#F948B4;" d="M266.004,34.273c-5.545,0-10-4.5-10-10c0-4.699,3.265-8.831,8.04-9.8
				c6.153-1.244,11.96,3.489,11.96,9.8C276.004,29.715,271.567,34.273,266.004,34.273z"/>
		</g>
	</g>
	<g>
		<g>
			<path style="fill:#FECD0A;" d="M296.504,34.273c-5.545,0-10-4.5-10-10c0-6.412,5.883-11.026,11.95-9.8
				c4.793,0.972,8.05,5.136,8.05,9.8C306.504,29.715,302.067,34.273,296.504,34.273z"/>
		</g>
	</g>
	<g>
		<g>
			<path style="fill:#39DF74;" d="M327.004,34.273c-5.426,0-10-4.397-10-10c0-6.412,5.883-11.026,11.95-9.8
				c4.835,0.981,8.05,5.179,8.05,9.8C337.004,29.699,332.583,34.273,327.004,34.273z"/>
		</g>
	</g>
	<g>
		<g>
			<path style="fill:#AEAEFF;" d="M436.569,31.775h-77.923c-4.142,0-7.5-3.357-7.5-7.5c0-4.142,3.358-7.5,7.5-7.5h77.923
				c4.142,0,7.5,3.358,7.5,7.5C444.069,28.418,440.711,31.775,436.569,31.775z"/>
		</g>
	</g>
	<path style="fill:#8181FC;" d="M386.964,98.205c0-4.143,3.358-7.5,7.5-7.5h-61.448c-4.142,0-7.5,3.357-7.5,7.5s3.358,7.5,7.5,7.5
		h61.448C390.322,105.705,386.964,102.347,386.964,98.205z"/>
	<path style="fill:#8181FC;" d="M412.594,24.275c0-4.143,3.358-7.5,7.5-7.5h-61.448c-4.142,0-7.5,3.357-7.5,7.5s3.358,7.5,7.5,7.5
		h61.448C415.952,31.775,412.594,28.418,412.594,24.275z"/>
	<g>
		<g>
			<path style="fill:#AEAEFF;" d="M479.87,31.775h-16c-4.142,0-7.5-3.357-7.5-7.5c0-4.142,3.358-7.5,7.5-7.5h16
				c4.142,0,7.5,3.358,7.5,7.5C487.37,28.418,484.012,31.775,479.87,31.775z"/>
		</g>
	</g>
</g>
<g>
</g>
<g>
</g>
<g>
</g>
<g>
</g>
<g>
</g>
<g>
</g>
<g>
</g>
<g>
</g>
<g>
</g>
<g>
</g>
<g>
</g>
<g>
</g>
<g>
</g>
<g>
</g>
<g>
</g>
</svg>
